<?xml version="1.0" encoding="utf-8"?>
<!-- Generator: Adobe Illustrator 18.1.1, SVG Export Plug-In . SVG Version: 6.00 Build 0)  -->
<svg version="1.1" xmlns="http://www.w3.org/2000/svg" xmlns:xlink="http://www.w3.org/1999/xlink" x="0px" y="0px"
	 viewBox="9 -194.1 1000 1000" enable-background="new 9 -194.1 1000 1000" xml:space="preserve">
<g id="Background">
	<circle fill="#2175A6" cx="509" cy="305.9" r="464"/>
</g>
<g id="Grades" display="none">
	<g display="inline">
		<path fill="#FFFFFF" d="M738.5-0.1h-459c-21.2,0-38.2,17.1-38.2,38.2v535.5c0,21.2,17.1,38.2,38.2,38.2h344.2l153-153V38.1
			C776.8,17,759.7-0.1,738.5-0.1z M623.8,557.9v-99h99L623.8,557.9z M738.5,420.7H623.8c-21.2,0-38.2,17.1-38.2,38.2v114.8h-306
			V38.1h459v382.6H738.5z M317.8,133.8c0-10.5,8.6-19.1,19.1-19.1h344.2c10.5,0,19.1,8.6,19.1,19.1s-8.6,19.1-19.1,19.1H336.9
			C326.4,152.9,317.8,144.3,317.8,133.8z M317.8,248.5c0-10.5,8.6-19.1,19.1-19.1h344.2c10.5,0,19.1,8.6,19.1,19.1
			s-8.6,19.1-19.1,19.1H336.9C326.4,267.7,317.8,259,317.8,248.5z M317.8,363.3c0-10.5,8.6-19.1,19.1-19.1h344.2
			c10.5,0,19.1,8.6,19.1,19.1s-8.6,19.1-19.1,19.1H336.9C326.4,382.4,317.8,373.8,317.8,363.3z"/>

			<text transform="matrix(1 0 0 1 329.6082 517.1074)" fill="#FFFFFF" font-family="'kindergarten'" font-size="132.6797" letter-spacing="-21">A+</text>
	</g>
</g>
<g id="Courses" display="none">
	<path display="inline" fill="#FFFFFF" d="M757.6,76.4v497.3h-459c-21.2,0-38.2-17.1-38.2-38.2c0-21.2,17.1-38.3,38.2-38.3h420.8
		V-0.1H298.6c-42.2,0-76.5,34.3-76.5,76.5v459c0,42.2,34.3,76.5,76.5,76.5h497.2V76.4H757.6z M298.6,152.9v-38.2V38.1h382.5v420.8
		H298.6V152.9z M604.6,114.6H375.1V76.4h229.5V114.6z M528.1,191.1h-153v-38.2h153V191.1z M451.6,267.6h-76.5v-38.2h76.5V267.6z"/>
</g>
<g id="Help" display="none">
	<path display="inline" fill="#FFFFFF" d="M507.3-50.8c-98.7,0-171.9,23.2-218.3,58.9s-62.7,80.3-68.5,114.2l116.1,11.6
		c4.6-22.3,13.9-44.6,36-61.5c22.1-16.9,56.9-33.9,134.7-33.9c76.7,0,118.5,14.3,141.7,30.3s32.5,35.7,32.5,58.9
		c0,74-39.5,94.5-97.6,133.8S449.2,357.6,449.2,462v22.3h116.1V462c0-74,36-94.5,94.1-133.8s138.2-96.3,138.2-200.7
		c0-42.8-19.7-91-68.5-125.7C679.1-33,604.8-50.8,507.3-50.8z M449.2,573.4v89.2h116.1v-89.2H449.2z"/>
</g>
<g id="Commons" display="none">
	<path display="inline" fill="#FFFFFF" d="M458.9-15.2c-86.9,0-163.1,61.8-179.6,143.7c-79,0-143.7,64.7-143.7,143.7
		S200.3,416,279.3,416h323.3c59.6,0,107.8-48.1,107.8-107.8c0-46.7-30.2-92.7-71.9-107.8v-35.9C638.6,65.3,558.1-15.2,458.9-15.2z"
		/>
	<path display="inline" fill="#FFFFFF" stroke="#607ABA" stroke-width="15" stroke-miterlimit="10" d="M626.9,132.8
		c-86.9,0-163.1,61.8-179.6,143.7c-79,0-143.7,64.7-143.7,143.7S368.3,564,447.3,564h323.3c59.6,0,107.8-48.1,107.8-107.8
		c0-46.7-30.2-92.7-71.9-107.8v-35.9C806.6,213.3,726.1,132.8,626.9,132.8z"/>
	<path display="inline" fill="#FFFFFF" stroke="#607ABA" stroke-width="12" stroke-miterlimit="10" d="M627,482L488.1,620.8h111.1
		v27.8c0,15.3,12.4,27.8,27.8,27.8c15.3,0,27.8-12.4,27.8-27.8v-27.8h111.1L627,482z"/>
</g>
<g id="Layer_6" display="none">
	<g display="inline">
		<path fill="#FFFFFF" d="M267.6,200.4c-13.4-22.5-21.8-46-19.6-74.1c7.1,4.6,13.6,8.4,19.6,12.8c14.4,10.6,29.9,18.8,47.1,23.7
			c3.9,1.1,8.2,1,12.3,1.5c0.2-0.5,0.4-1,0.5-1.5c-1.8-2.7-3.5-5.4-5.5-8c-5.9-7.6-5.5-11.6,2.2-17.9c2.7-2.2,5.3-4.4,8-6.5
			c2.7-2.1,5.5-4.1,8.3-6.1c-4.6-10.3-4-12.7,5.9-21c2.7-2.2,3.7-4.2,3.5-7.9c-0.7-10.5,5.4-18.4,11.8-25.8
			c10-11.4,23-18.6,36.6-24.8c3.6-1.7,6.3-1.3,7.7,3c1.3,3.8,3,7.4,4.1,11.2c1,3.3,2.9,3.5,5.7,2.8c4.3-1,8.6-2.1,13-2.4
			c6.5-0.5,9.8,2.1,11.7,8.2c1.4,4.6,2.8,9.1,4,12.8c11.4-11.5,22.4-23.7,34.6-34.7c13.5-12.1,28.6-22.3,45.3-29.8
			c17.7-8,36-13.3,55.4-13.2c16.6,0,32.5,4.3,47.7,11c27,11.9,51.8,27.8,76.6,43.5c5,3.2,10,6.4,15.2,9.3c1.6,0.9,3.8,1.2,5.7,1.2
			c10.6,0.1,21.2-0.4,31.7,0.2c13.1,0.8,25.7,4,36.1,12.9c14.4,12.4,15.3,30.2,4.7,46.4c-9.1,13.9-22.9,20.6-38.9,24.2
			c-18.9,4.2-37.6,3.8-56-1.4c-10.3-2.9-19.9-8.2-30.3-12.6c0.1-0.2-0.6,0.7-1.2,1.6c-2.2,3.3-7,5.7-2.1,10.8c3,3,5.2,6,10,7.2
			c11.6,2.9,23.1,6.7,34.3,10.9c2.4,0.9,5.1,5.1,5,7.7c-0.6,28.1,6.8,54.9,13.6,81.7c6.4,25,13.2,49.9,20.4,74.8
			c7,24.5,10.4,49.6,9.9,74.9c-0.7,34-9.1,66.4-23.9,97.2c-10.5,21.9-22.6,42.6-40.6,59.2c-15.4,14.3-32.2,26.9-51.5,35.6
			c-12.4,5.6-24.7,11.8-37.6,15.9c-15.6,4.9-31.7,8.3-47.7,11.6c-24.1,5-48.7,2.3-73,2.8c-16.9,0.4-33.8,0.4-50.5-2.7
			c-15.2-2.8-30.4-5.9-45.5-9.2c-17.8-3.9-34.6-10.8-50.7-19.5c-22-11.9-40.5-27.8-53.2-49.5c-4.6-7.8-6.6-17.1-10.6-25.3
			c-3.4-6.9-7.6-13.6-12.3-19.6c-8.1-10.2-12.3-21.5-13.2-34.4c-0.9-13.9,0-27.5,6.3-40.2c5.3-10.6,12.6-19.6,21.8-27.1
			c3.7-3,7.5-6.1,10.8-9.5c1.1-1.1,1.8-3.8,1.2-5.2c-5.3-13.7-14.2-24.7-25.7-33.9c-12.2-9.7-24.2-19.9-26.8-36.7
			c-0.6-4.1-0.1-9.4-2.5-11.8c-2.3-2.4-7.7-1.6-11.7-2.7c-2.8-0.8-5.9-1.7-8.1-3.5c-1.9-1.6-3.6-4.5-3.7-6.9
			c-0.8-12.3,4-23.4,8.9-34.2c9.4-20.5,23.5-37.7,40.5-52.5C264.4,203.4,265.9,201.9,267.6,200.4z M286.6,518.7
			c4.2,12.1,9.1,22.1,16.1,30.9c11.5,14.4,25.5,26,41.1,35.6c15,9.3,31.1,16.3,48,20.9c10.6,2.9,21.5,4.8,32.4,6.5
			c11.6,1.8,23.2,3.8,34.9,4c22.3,0.4,44.5-0.6,66.8-0.9c31.1-0.5,61.4-5.9,90.3-17.2c13.1-5.1,26.2-10.9,38.3-18
			c11.1-6.6,21.2-15.2,31.3-23.4c11.7-9.5,20.8-21.3,28.7-34c12.3-19.7,20.4-41.2,26.1-63.8c5.5-21.7,8.5-43.8,8.8-66
			c0.3-26.2-3.8-52.1-11.1-77.3c-7.7-26.7-15.4-53.5-22.3-80.4c-3-11.4-4.2-23.3-6.1-35c-1-5.9-1.7-11.8-2.5-17.3
			c-5.2,3.2-10,6.6-15.3,9.3c-5.3,2.7-10.8,4.8-16.4,6.8c-20.9,7.4-42,13.9-63.7,18.5c-20.6,4.4-41,9-62.1,10.6
			c-23.3,1.8-46.5,3.4-69.6-1.2c-2-0.4-4.1-0.7-6.5-1.1c-0.8,14.7-0.4,29.2-5.8,42.5c1.4,3.2,3.1,6.6,2.8,9.8
			c-1.2,14.8-2.7,29.5-4.8,44.2c-1.6,11.8-3.7,23.7-6.5,35.3c-3.5,14.2-7.2,28.4-12.3,42.1c-6.4,17.3-13.5,34.5-21.5,51.1
			c-10.6,22.1-24.8,41.9-43,58.6c-16.5,15.1-34.7,25.5-58.1,23.7c-11.4-0.9-22.1-3.4-31.7-9.9C291.2,522.3,289.5,520.9,286.6,518.7z
			 M385.3,327.5c-4-21-8.7-41.4-20.4-58.9c-5.5,2.5-10.4,4.7-15.4,6.9c0.2,0.7,0.3,1.2,0.5,1.6c0.4,0.9,0.8,1.8,1.2,2.7
			c6.7,13.8,11.9,27.9,11,43.5c-0.8,13.7-5.6,26.1-15.3,35.6c-7.7,7.6-16.8,13.8-25.6,20.2c-18.6,13.5-35.9,28.3-48.4,47.8
			c-9.1,14.2-12.7,29.3-8.5,46.1c4,15.9,12,29,24.6,39.4c18.1,15,38.6,17.7,60.3,10.4c18.3-6.1,31.9-19.2,44-33.6
			c15.8-18.9,27.7-40.5,38-62.8c11.1-23.9,20.9-48.3,25.1-74.6c3.6-22.9,7.4-45.7,11-68.5c0.6-4-0.6-7.5-4.2-9.8
			c-14.1-8.9-29.1-14.7-46.1-14.4c-4.6,0.1-4.9,1.7-4.4,5.7c0.9,7.6,1.6,15.2,1.5,22.9c-0.1,8.4-0.6,16.9-2.2,25.1
			c-2.6,13-6.3,25.8-9.8,38.7c-0.4,1.4-2.5,2.2-3.8,3.3c-0.4-0.3-0.7-0.6-1.1-0.9c0.2-1.2,0.2-2.5,0.6-3.7
			c1.7-5.3,3.7-10.5,5.1-15.9c5.9-22.9,7.9-46,4.5-69.6c-0.6-4.2-2.7-6.5-6.3-7.1c-10-1.8-19.7-1.1-28.6,4.3
			c-2.4,1.5-3.4,3.6-1.9,6.3c8.6,15.3,12.8,32,16.3,49C387.8,320.7,389,324.5,385.3,327.5z M533.9,35.8c-0.2-0.7-0.4-1.4-0.6-2.1
			c2.3-1.2,4.5-3.1,6.8-3.3c7.4-0.7,14.9-1.4,22.3-1.1c23.5,1.1,44.2,9.5,61.3,25.6c10.1,9.6,16.6,21.9,23.1,34.1
			c5,9.4,10,19,16.4,27.4c12.1,15.6,29.7,22.1,48.5,24.9c16.2,2.4,32.6,2.3,48.5-3c9.1-3,18.1-6.3,25-13.6
			c9.2-9.8,9.6-22.4,1.7-33.4c-6.2-8.7-15.1-11.9-24.5-14.6c-10.5-3-21.1-3.1-32.8-1c9,5.5,17.2,10.4,25.3,15.4
			c-0.3,0.6-0.7,1.2-1,1.8c-4.1-1.6-8.5-2.7-12.3-4.8c-15.6-8.6-31.1-17.5-46.6-26.4c-18.9-10.8-37.6-21.9-56.6-32.5
			c-16.3-9.1-33.9-15-52.7-15c-26.4-0.1-50.5,8.6-72.5,22.7c-12,7.7-23.3,16.7-34.2,26c-9.3,8-17.4,17.3-26.7,26.7
			c4.5,2,7.9,3.2,11.1,5c7.5,4.1,15,8.2,22.2,12.8c3.6,2.2,4.3,5.5,2.6,9.8c-3.9,9.8-7.6,19.7-10.5,29.8c-2.9,10.1-4.3,20.6-3,31.6
			c3-1.2,5.6-2.6,8.4-3.2c17.6-3.8,35.2-7.3,52.8-11.1c2.1-0.5,4.4-1.9,5.8-3.6c6.8-8.7,13.3-17.7,23.7-22.8
			c3.4-1.7,5.1-1.2,6.5,2.1c1.7,4,3.7,7.8,5.4,11.7c1.2,2.6,2.2,3.9,5.8,3.6c14.1-1.4,28.2-2.6,42.2,0.8c0.8,0.2,2.7-1.3,3.2-2.3
			c1.9-4.9,3.8-9.8,5.1-14.9c0.9-3.8,3.1-4.6,6.1-3.4c4.7,1.8,9.3,4.2,14,6.2c1.1,0.5,3.2,0.7,3.7,0.1c3.5-4.5,6.8-9.1,10-13.5
			c-2.7-2.5-5.2-4.1-6.7-6.4c-7.5-11.6-14.6-23.6-22.2-35.1c-6.6-10-12.6-20.9-21.2-29C596,37.5,570,31,541.2,35.8
			C538.8,36.2,536.4,35.8,533.9,35.8z M462,264.8c0.1-0.4,0.5-1.5,0.7-2.5c3.4-22.3,1.6-44.7,1.2-67.1c-0.3-15.8-0.3-31.6,3-47.2
			c2.2-10.4,4.9-20.8,7.1-31.2c0.3-1.6-0.2-4.2-1.3-5.1c-3.4-2.8-7.2-5.3-11-7.5c-13.3-7.7-27.9-8.7-42.7-7.4
			c-7,0.6-14.3,1.7-21.3,6.6c3.6,3.7,6.9,6.8,9.9,10.3c1,1.2,2.1,3.9,1.5,4.8c-5.2,7.6-10.6,15.1-16.2,22.4c-3.1,4.1-5.4,3.7-7-1.2
			c-3.6-10.5-3.7-21.2-0.2-33.1c-20.6,11.5-38.9,24.2-54.8,38.7c5.3,10.1,11.6,18.8,14.7,28.5c6.6,20.4,11.6,41.3,17.1,62
			c2,7.4,3.7,14.8,5.6,22.3c13-7.6,25.7-8.8,39-3c0.9,0.4,2.1,0.5,3.2,0.4c6-0.2,12.2-1.8,17.9-0.6
			C439.5,257.4,450.5,261.3,462,264.8z M536,169.4c-5.4,0.8-10.1,1.4-14.9,2.1c-14.8,2.3-29.3,5.9-43.1,11.8
			c-1.7,0.7-4.2,2.4-4.3,3.8c-0.3,9.7,0.2,19.5,0,29.3c-0.1,3.4,1.4,5,4.2,5.4c8,1.2,15.9,2.3,23.9,3.3c18.2,2.4,36.3,0.6,54.3-1.7
			c16.7-2.1,33.3-5.4,49.8-9.1c15.2-3.4,30.3-7.6,45.2-11.9c11-3.2,21.9-7.1,32.7-11c8.2-3,16.3-6.4,22.2-15.6
			c-10.8-3.8-21.1-7.5-31.9-11.3c2,7.5,3.8,13.6,5.2,19.7c0.3,1.2-0.4,2.6-0.7,4c-1.2-0.2-2.5-0.3-3.6-0.7
			c-10.8-4.6-21.4-9.5-32.3-13.8c-5.9-2.3-12.2-3.4-18.6-5.1c0.4-2.4,0.7-4.8,1.1-7.6c-14.7-2.7-29.1-3.6-44.9-0.9
			c2.9,4.2,5,7.7,7.5,10.9c2.3,3,2.1,4.5-1.4,5.6c-1.1,0.3-2.3,0.4-3.3,1c-11.7,6.7-23.5,13.3-35,20.4c-5.4,3.3-10,7.8-15.1,11.8
			C528.8,202.4,530.4,181.2,536,169.4z M273.9,209.3c-3.9,3.4-8.3,7-12.5,10.9c-19.3,17.8-30.7,40.1-36.3,65.5
			c-1,4.8,0.7,7.4,5.7,8.4c3.8,0.7,7.7,1.7,11.5,1.4c5.2-0.4,6.1,2.3,6.3,6.4c0.3,4.8,0.7,9.5,1.6,14.2
			c2.4,12.5,11.5,20.6,20.3,28.6c13.1,11.8,26.3,23.6,33.3,40.7c5.3-4.1,10.5-7.9,15.3-12.1c1.3-1.1,2.5-3.7,2.1-5.2
			c-3.6-12.3-8.9-23.5-21-30c-3.4-1.8-6.6-3.7-9.9-5.6c-10.6-5.9-18.1-14.1-20.9-26.2c-2.3-9.9-1-12.6,8.3-16.2
			c1.5-0.6,3.1-1.2,4.5-2.2c3.3-2.2,5.8-4.9,4.9-9.5c-2.5-12.2,2.6-21.8,11-30c3.1-3,6.6-5.6,10-8.4c-7.9-7.1-15.5-13.9-23-20.6
			c-19.7,13.9-29.2,35.4-41.9,56c-0.7-2.6-1.5-3.9-1.2-4.6c9.6-20.8,22.2-39.4,39.7-54C279.1,214.5,276.8,212.2,273.9,209.3z
			 M357.9,267.9c0.4-1.6,1.1-3,0.9-4.2c-1.3-7.4-2.3-14.9-4.3-22.2c-5.5-19.9-11.5-39.7-17.2-59.6c-1.9-6.7-5-9.5-12.9-9.8
			c-19.4-0.8-36.7-8.8-52.7-19.7c-3.6-2.5-7.3-4.8-11.8-7.8c0,2.9-0.4,4.9,0.1,6.7c2.4,8.5,4.4,17.1,7.7,25.3
			c7.6,18.9,19.9,34.6,35.5,47.4C321,238.6,339.2,252.9,357.9,267.9z M343.1,267.2c-1.6-1.8-2.3-3.1-3.4-3.9
			c-5.1-3.9-10.3-7.6-15.6-11.3c-7.1-5-7.2-5.1-14.1,0.1c-3.1,2.4-5.9,5.3-8.5,8.2c-5.9,6.5-7.8,14.4-6.6,23
			c1.3,9.2,2.3,10.6-9.1,15.6c-8.9,3.9-9,3.5-6,12.5c0.2,0.6,0.6,1.2,0.9,1.8c3.5,9.5,12.1,12.4,20.4,15.9c4.2,1.8,8.2,4.3,11.7,7.1
			c8.5,6.9,12.1,17,16.6,26.9c2.6-2.4,4.9-5.1,7.6-7.1c10.5-7.7,15-18.3,15.4-30.8c0.6-18.3-4.5-34.9-15.4-49.6
			c-1.9-2.5-3.4-5.3-5.8-9.2C335.9,266.6,339,266.9,343.1,267.2z M351.6,121.3c13.5-7.7,26.4-16,40.1-22.6
			c13.8-6.6,28.9-8.9,45.4-7.2c-2.3-7-4.1-13.3-6.7-19.2c-0.7-1.6-3.9-3.2-5.7-2.9c-6.7,1.1-13.5,2.6-20,4.7
			c-20.8,6.6-36.7,20.4-51.3,35.9C350.4,113.3,347.7,117.2,351.6,121.3z M535.6,202.4c0.8,0,1,0.1,1.1,0
			c13-11.1,26.9-20.9,42.4-28.3c1-0.5,2-2.9,1.6-3.8c-4.1-9.7-8.6-19.2-13-28.9C545.3,156.1,534.2,175.8,535.6,202.4z M673.8,180.5
			c-0.9-3-1.5-5.8-2.5-8.3c-5.6-13.8-13.7-25.4-28-31.5c-3.9-1.7-5.2-0.5-6.3,3.1c-1.4,4.4-3.2,8.6-4.8,13
			c-2.8,7.7-2.5,8.4,5.6,10.4c1,0.2,1.9,0.5,2.8,0.8C651.5,172.1,662.4,176.2,673.8,180.5z M356.8,95.7c0.7,0.3,1.4,0.7,2.1,1
			c4.1-3.5,7.8-7.7,12.3-10.5c9.7-6.1,19.8-11.5,29.8-17.1c2.5-1.4,3.6-2.7,1.9-5.4c-1-1.5-1.3-3.6-2.5-4.8
			c-1.2-1.1-3.6-2.3-4.7-1.8c-14,5.8-26.4,13.7-34.3,27.2C359.2,87.8,358.2,91.9,356.8,95.7z M392.9,103.8
			c-4.7,10.8-5.6,22.7-2.6,32.2c3.8-5.5,7.3-11,11.2-16.2c1.9-2.5,1.9-4-0.4-6.2C398.3,110.7,395.9,107.4,392.9,103.8z"/>
		<line fill="none" x1="570" y1="121.3" x2="640.7" y2="50.6"/>
		<path fill="#FFFFFF" d="M636.4,312.3c-2,13.2-5.9,24.9-15.4,34.4c-13.4,13.4-35.6,13.2-47-4.8c-17.9-28.3-21.2-58.6-10.4-90.1
			c3.6-10.4,8.9-20.3,20.7-24.4c12.2-4.2,22.3,0.7,29.8,8.8c4.4,4.8,8.2,10.2,12.7,16c1.8-5.3,3.2-10.3,5.1-15.1
			c5.1-13.2,12.7-18.9,25.2-19.4c9-0.3,15.7,4.7,21.8,10.9c11.1,11.1,17.6,24.6,20.8,39.6c3.5,16.5,3.8,33.1-3.3,48.9
			c-7.8,17.5-29.1,28.3-47.6,10C644.4,322.6,640.8,317.5,636.4,312.3z M566,259.4c-0.3-0.1-0.6-0.2-0.9-0.3c-0.7,4.3-1.2,8.6-2,12.9
			c-4.3,24.3,0.4,47,14.5,67.1c5.1,7.2,12.3,12.9,22.5,12.5c8.8-0.3,14.6-5.4,19.9-11.3c11.2-12.3,13.5-27.9,13.1-43.5
			c-0.5-19.9-5.4-38.8-18.9-54.5c-7.2-8.5-15.7-13.8-28.3-11.2c2.9,1.8,5.3,2.8,7.2,4.5c9.2,8.3,10.4,20.9,7,30.9
			c-4.3,12.8-22.3,15.1-29.2,4.9C568.6,268,567.6,263.5,566,259.4z M629.2,253.6c0.4,4,0.3,7.1,0.9,9.9c1.8,8.3,4.4,16.5,5.6,24.8
			c1.3,9.1,1.7,18.3,7.9,25.8c2.3,2.8,4.8,5.4,6.9,8.4c8.1,11.9,24.2,12.3,34.1,3.3c10.6-9.6,12.9-22.4,13.5-35.5
			c0.9-17.2-4.3-33.2-13.1-47.9c-5.9-10-13-19-25.3-21.3c-3.2-0.6-6.6-0.1-9.9-0.1c2.7,2.7,5.5,3.8,7.7,5.6
			c9.1,7.5,10.6,20.5,6.1,31.3c-2.9,6.9-13.6,11.1-20,7.3C639,262.7,635.1,258.6,629.2,253.6z M593.8,240.6c-2-1.6-3.3-3.6-4.6-3.5
			c-1.2,0.1-3.2,2.3-3.2,3.5c0,1.2,2,3.4,3.2,3.4C590.5,244.1,591.8,242.2,593.8,240.6z M653.7,236.1c1.7-2.4,3.2-3.7,3.6-5.3
			c0.2-0.7-2.1-2.9-3-2.8c-1.4,0.2-3.5,1.7-3.7,2.9C650.4,232.1,652.2,233.6,653.7,236.1z"/>
		<path fill="#FFFFFF" d="M548.6,383.6c-4.1,0.4-8.4,0.9-12.8,1.3c-0.2-0.7-0.3-1.5-0.5-2.2c3-1.1,6-3,9-3.1
			c7.9-0.5,15.9-0.2,23.8-0.1c0.6,0,1.3,0.3,1.8,0.7c1,0.8,1.8,1.7,2.7,2.6c-1.2,0.6-2.3,1.6-3.5,1.6c-2.5,0-5-0.6-8.4-1
			c4.1,12.2,11.2,21.3,19.7,29.3c13.4,12.7,29.7,20,47.3,24.4c14.4,3.6,29,5.2,43.9,2.8c0.3,0.9,0.7,1.5,0.8,2.1
			c0.1,0.6-0.1,1.3-0.2,2.2c-1.8,0.3-3.6,1.1-5.3,0.9c-11.1-1.9-17.9,5.3-24.2,12.1c-13.8,15-21.8,33.1-24.7,53.3
			c-0.5,3.7-0.6,7.5-0.7,11.3c-0.1,2.5,1,3.7,3.7,2.7c3.1-1.1,6.2-2.1,9.4-3c1.3-0.4,2.7-0.5,4-0.8c0.2,0.4,0.5,0.8,0.7,1.2
			c-1.1,1.1-2,2.7-3.4,3.4c-15.8,7.7-32.4,9.9-49.4,5.3c-11.2-3.1-18-12.2-24.3-21.3c-5.8-8.4-8-18.3-9.7-28.1
			c-3.4-20.6-4.3-41.4-3.3-62.2C545.7,407.3,547.4,395.7,548.6,383.6z M556.2,383.6c-0.5,0-1.1-0.1-1.6-0.1
			c-1.4,9.5-3.8,18.9-3.9,28.4c-0.1,16.2,1.2,32.3,1.9,48.5c0.5,12.7,1.8,25.2,6.1,37.3c7.5,21.2,25.4,32.7,47.4,30.2
			c4-0.5,6.8-1.7,6.7-7.1c-0.1-6.7,0.8-13.5,2.1-20c4.5-21.9,15.8-40,32.4-55.1c-0.9-0.4-1.7-0.9-2.4-0.9
			c-15.8-1.8-31-6.2-45.1-13.3C579.3,421.2,563.1,406.5,556.2,383.6z"/>
		<path fill="#FFFFFF" d="M364.2,581.5c2.8-1,5.7-2.1,8.5-3.1c13-4.8,23.4-13.5,33.3-22.8c21.2-20,37.8-43.4,49.4-70.2
			c4.8-11,8.1-22.6,12.2-33.9c0.4-1,1.7-1.7,2.7-2.6c0.4,1.2,1.4,2.5,1.1,3.5c-4.9,21-13,40.7-24,59.3c-8.1,13.7-17,26.8-28.2,38.1
			c-11.4,11.6-23.4,22.7-38,30.4c-4,2.1-8.7,2.9-13.1,3.9c-1.2,0.3-2.6-0.6-3.9-1C364.2,582.7,364.2,582.1,364.2,581.5z"/>
		<path fill="#FFFFFF" d="M476,417.4c-0.1-1.8-0.9-3.8-0.3-5.4c6.8-17.9,9.6-36.6,10.5-55.6c0.5-11.9,1.7-23.9,1.4-35.8
			c-0.5-14.7-2.4-29.4-3.4-44.1c-0.2-2.1,0.8-4.3,1.3-6.5c1.2,1.8,3.3,3.6,3.5,5.5c1.3,10.9,2.3,21.9,3,32.9
			c0.6,9.7,0.9,19.5,0.7,29.2c-0.7,25.3-3.1,50.3-11.8,74.3c-0.7,1.9-2,3.7-3,5.5C477.1,417.5,476.6,417.5,476,417.4z"/>
		<path fill="#FFFFFF" d="M429.8,197.9c-4.2,7.6-11.9,8.8-19.9,7.7c-8.4-1.2-13.1-7.8-15.2-15.2c-3.7-12.5-3.7-25.1,3.9-36.6
			c5.4-8.2,15-11.6,23.9-5.9c1.9,1.2,3.9,2.3,5.8,3.5c9-10.4,19.8-8,26.2,2.4c2.4,3.9,4,8.9,4.3,13.5c0.5,7.8,0.5,15.9-0.8,23.6
			c-1.5,9-9.3,14.8-16.6,13.1C437.5,203,434,200.1,429.8,197.9z M429.9,186.2c1.3-9.9,1.3-18.9-2.1-27.9c-2.1-5.6-6.1-9.1-11.9-9.9
			c-6.3-0.8-11.1,1.7-14.5,7.4c-7.7,12.6-7,25.4-1.7,38.4c2,4.8,7.1,7.9,12,7.7c-5.1-6.4-5.6-14.1-1.4-21c3.4-5.6,9.8-7.5,14.2-3.6
			C426.8,179.4,427.8,182.7,429.9,186.2z M444.3,200.5c-8-6.6-9.5-12-5.5-19.8c3.7-7.1,7.2-8.3,17.5-5.5c-1-9.6-1.2-19.2-9.9-25.7
			c-4-3-7.8-2.2-11.5,0c-3.4,2-3.5,5.2-3.1,9.1c1,9.8,1.8,19.8,1.6,29.7C433.3,195.8,436.3,200.2,444.3,200.5z M444.5,185.6
			c1.7-1.8,3.3-2.8,3.6-4c0.2-0.8-1.6-2.9-2.6-2.9c-1.1,0-2.7,1.5-3,2.6C442.2,182.2,443.5,183.6,444.5,185.6z M412.3,186.7
			c0.9,0.3,1.8,0.6,2.7,1c0.8-1.7,1.6-3.4,2.4-5.1c-1.4-0.4-2.9-0.8-4.3-1.2C412.8,183.2,412.6,185,412.3,186.7z"/>
		<path fill="#FFFFFF" d="M455,245.2c-0.3,4.1-3.3,4.1-6.1,4.4c-11.3,1-21.5-2.6-30.8-8.5c-7.5-4.7-14.5-10.2-21.7-15.5
			c-1.2-0.9-1.7-2.6-2.1-4.9c21,12.4,43.1,9.8,66,4.9c-1.6,5.4-5.3,4.7-7.8,6c-2.4,1.3-7.1-0.8-7,4.4c0,3.1-0.7,7,0.8,8.9
			C447.5,246.3,451.8,245.2,455,245.2z M417,233.6c7,4.4,13.6,10,22.7,10.1c0.2-1.6,0.3-2.8,0.4-3.9c0.9-6.2,0.4-6.5-6-6.2
			C428.5,233.8,422.7,233.6,417,233.6z"/>
		<path fill="#FFFFFF" d="M466,135.1c-12-4-23-7.7-34.8-11.7c2.3-5.7,4.5-11.5,6.9-17.2c1.4-3.2,3.8-3.9,6.8-1.8
			C455.3,111.6,463.3,120.5,466,135.1z M457.7,127.3c0.4-0.3,0.8-0.5,1.1-0.8c-2.9-4.2-5.6-8.7-8.9-12.6c-1.9-2.2-4.9-3.3-7.5-5
			c-1.5,2.7-3.5,5.2-4.3,8.1c-0.4,1.4,1,4.4,2.3,4.9C446.1,124.1,452,125.6,457.7,127.3z"/>
		<path fill="#FFFFFF" d="M593.8,240.6c-1.9,1.6-3.3,3.5-4.6,3.4c-1.2-0.1-3.3-2.2-3.2-3.4c0-1.3,2-3.5,3.2-3.5
			C590.4,237,591.8,239,593.8,240.6z"/>
		<path fill="#FFFFFF" d="M653.7,236.1c-1.6-2.4-3.3-4-3.1-5.2c0.2-1.2,2.3-2.7,3.7-2.9c0.9-0.1,3.2,2,3,2.8
			C656.9,232.4,655.4,233.7,653.7,236.1z"/>
		<path fill="#FFFFFF" d="M444.5,185.6c-1-2-2.3-3.4-2-4.3c0.3-1.1,2-2.6,3-2.6c0.9,0,2.7,2,2.6,2.9
			C447.8,182.8,446.2,183.8,444.5,185.6z"/>
		<path fill="#FFFFFF" d="M412.3,186.7c0.3-1.8,0.5-3.5,0.8-5.3c1.4,0.4,2.9,0.8,4.3,1.2c-0.8,1.7-1.6,3.4-2.4,5.1
			C414.1,187.4,413.2,187.1,412.3,186.7z"/>
	</g>
</g>
<g id="Layer_7">
	<path fill="#FFFFFF" d="M394.2,305.9h-76.5v-76.5h76.5V305.9z M547.2,229.4h-76.5v76.5h76.5V229.4z M700.2,229.4h-76.5v76.5h76.5
		V229.4z M394.2,344.1h-76.5v76.5h76.5V344.1z M547.2,344.1h-76.5v76.5h76.5V344.1z M700.2,344.1h-76.5v76.5h76.5V344.1z
		 M394.2,458.9h-76.5v76.5h76.5V458.9z M547.2,458.9h-76.5v76.5h76.5V458.9z M356,114.6c21.2,0,38.2-17.1,38.2-38.2V38.1
		c0-21.2-17.1-38.2-38.2-38.2S317.8,17,317.8,38.1v38.2C317.8,97.5,334.8,114.6,356,114.6z M815,76.4v535.5H203V76.4h95.6
		c0,31.7,25.7,57.4,57.4,57.4s57.4-25.7,57.4-57.4h191.2c0,31.7,25.7,57.4,57.4,57.4s57.4-25.7,57.4-57.4H815z M776.8,191.1H241.2
		v382.5h535.5V191.1z M662,114.6c21.2,0,38.2-17.1,38.2-38.2V38.1c0-21.2-17.1-38.2-38.2-38.2S623.8,17,623.8,38.1v38.2
		C623.8,97.5,640.8,114.6,662,114.6z"/>
</g>
</svg>
