<?xml version="1.0" encoding="utf-8"?>
<!-- Generator: Adobe Illustrator 18.1.1, SVG Export Plug-In . SVG Version: 6.00 Build 0)  -->
<svg version="1.1" xmlns="http://www.w3.org/2000/svg" xmlns:xlink="http://www.w3.org/1999/xlink" x="0px" y="0px"
	 viewBox="9 -194.1 1000 1000" enable-background="new 9 -194.1 1000 1000" xml:space="preserve">
<g id="Background">
	<circle fill="#2175A6" cx="509" cy="305.9" r="464"/>
</g>
<g id="Grades" display="none">
	<g display="inline">
		<path fill="#FFFFFF" d="M738.5-0.1h-459c-21.2,0-38.2,17.1-38.2,38.2v535.5c0,21.2,17.1,38.2,38.2,38.2h344.2l153-153V38.1
			C776.8,17,759.7-0.1,738.5-0.1z M623.8,557.9v-99h99L623.8,557.9z M738.5,420.7H623.8c-21.2,0-38.2,17.1-38.2,38.2v114.8h-306
			V38.1h459v382.6H738.5z M317.8,133.8c0-10.5,8.6-19.1,19.1-19.1h344.2c10.5,0,19.1,8.6,19.1,19.1s-8.6,19.1-19.1,19.1H336.9
			C326.4,152.9,317.8,144.3,317.8,133.8z M317.8,248.5c0-10.5,8.6-19.1,19.1-19.1h344.2c10.5,0,19.1,8.6,19.1,19.1
			s-8.6,19.1-19.1,19.1H336.9C326.4,267.7,317.8,259,317.8,248.5z M317.8,363.3c0-10.5,8.6-19.1,19.1-19.1h344.2
			c10.5,0,19.1,8.6,19.1,19.1s-8.6,19.1-19.1,19.1H336.9C326.4,382.4,317.8,373.8,317.8,363.3z"/>
		
			<text transform="matrix(1 0 0 1 329.6082 517.1074)" fill="#FFFFFF" font-family="'kindergarten'" font-size="132.6797" letter-spacing="-21">A+</text>
	</g>
</g>
<g id="Courses" display="none">
	<path display="inline" fill="#FFFFFF" d="M757.6,76.4v497.3h-459c-21.2,0-38.2-17.1-38.2-38.2c0-21.2,17.1-38.3,38.2-38.3h420.8
		V-0.1H298.6c-42.2,0-76.5,34.3-76.5,76.5v459c0,42.2,34.3,76.5,76.5,76.5h497.2V76.4H757.6z M298.6,152.9v-38.2V38.1h382.5v420.8
		H298.6V152.9z M604.6,114.6H375.1V76.4h229.5V114.6z M528.1,191.1h-153v-38.2h153V191.1z M451.6,267.6h-76.5v-38.2h76.5V267.6z"/>
</g>
<g id="Help">
	<path fill="#FFFFFF" d="M507.3-50.8c-98.7,0-171.9,23.2-218.3,58.9s-62.7,80.3-68.5,114.2l116.1,11.6c4.6-22.3,13.9-44.6,36-61.5
		c22.1-16.9,56.9-33.9,134.7-33.9c76.7,0,118.5,14.3,141.7,30.3s32.5,35.7,32.5,58.9c0,74-39.5,94.5-97.6,133.8
		S449.2,357.6,449.2,462v22.3h116.1V462c0-74,36-94.5,94.1-133.8s138.2-96.3,138.2-200.7c0-42.8-19.7-91-68.5-125.7
		C679.1-33,604.8-50.8,507.3-50.8z M449.2,573.4v89.2h116.1v-89.2H449.2z"/>
</g>
<g id="Commons" display="none">
	<path display="inline" fill="#FFFFFF" d="M458.9-15.2c-86.9,0-163.1,61.8-179.6,143.7c-79,0-143.7,64.7-143.7,143.7
		S200.3,416,279.3,416h323.3c59.6,0,107.8-48.1,107.8-107.8c0-46.7-30.2-92.7-71.9-107.8v-35.9C638.6,65.3,558.1-15.2,458.9-15.2z"
		/>
	<path display="inline" fill="#FFFFFF" stroke="#2175A6" stroke-width="15" stroke-miterlimit="10" d="M626.9,132.8
		c-86.9,0-163.1,61.8-179.6,143.7c-79,0-143.7,64.7-143.7,143.7S368.3,564,447.3,564h323.3c59.6,0,107.8-48.1,107.8-107.8
		c0-46.7-30.2-92.7-71.9-107.8v-35.9C806.6,213.3,726.1,132.8,626.9,132.8z"/>
	<path display="inline" fill="#FFFFFF" stroke="#2175A6" stroke-width="12" stroke-miterlimit="10" d="M627,482L488.1,620.8h111.1
		v27.8c0,15.3,12.4,27.8,27.8,27.8c15.3,0,27.8-12.4,27.8-27.8v-27.8h111.1L627,482z"/>
</g>
</svg>
