<?xml version="1.0" encoding="utf-8"?>
<!-- Generator: Adobe Illustrator 18.1.1, SVG Export Plug-In . SVG Version: 6.00 Build 0)  -->
<svg version="1.1" id="Layer_1" xmlns="http://www.w3.org/2000/svg" xmlns:xlink="http://www.w3.org/1999/xlink" x="0px" y="0px"
	 viewBox="0 0 28.3 28.3" enable-background="new 0 0 28.3 28.3" xml:space="preserve">
<g>
	<g>
		<path fill="#0073AC" d="M13.4,17.5c0-0.2,0-0.4,0-0.5c0-0.6,0.1-1.1,0.3-1.6c0.1-0.3,0.3-0.7,0.6-1c0.2-0.2,0.6-0.6,1.1-1.1
			c0.5-0.5,0.9-0.8,1-1.1c0.2-0.3,0.2-0.6,0.2-0.9c0-0.6-0.2-1.1-0.7-1.6c-0.5-0.5-1-0.7-1.7-0.7c-0.7,0-1.2,0.2-1.6,0.6
			c-0.4,0.4-0.7,1.1-0.9,1.9l-1.6-0.2c0.1-1.2,0.6-2.1,1.3-2.7c0.7-0.6,1.6-0.9,2.8-0.9c1.2,0,2.2,0.3,2.9,1
			c0.7,0.7,1.1,1.5,1.1,2.4c0,0.5-0.1,1.1-0.4,1.5c-0.3,0.5-0.8,1-1.5,1.7c-0.5,0.4-0.8,0.8-1,1c-0.2,0.2-0.3,0.5-0.3,0.7
			c-0.1,0.3-0.1,0.7-0.1,1.3H13.4z M13.3,20.5v-1.8H15v1.8H13.3z"/>
	</g>
	<circle fill="none" stroke="#0073AC" stroke-miterlimit="10" cx="14.2" cy="14.2" r="12.2"/>
</g>
<g>
	<polygon fill="#FFFFFF" stroke="#0073AC" stroke-miterlimit="10" points="61.9,5.7 78.2,5.7 85.4,12.9 85.4,32.1 61.9,32.1 	"/>
	<line fill="none" stroke="#0073AC" stroke-miterlimit="10" x1="65.4" y1="22.5" x2="81" y2="22.5"/>
	<line fill="none" stroke="#0073AC" stroke-miterlimit="10" x1="65.4" y1="26.6" x2="81" y2="26.6"/>
	<line fill="none" stroke="#0073AC" stroke-miterlimit="10" x1="65.4" y1="18.7" x2="81" y2="18.7"/>
	<line fill="none" stroke="#0073AC" stroke-miterlimit="10" x1="65.4" y1="14.5" x2="73.8" y2="14.5"/>
	<line fill="none" stroke="#0073AC" stroke-miterlimit="10" x1="65.4" y1="10.5" x2="73.8" y2="10.5"/>
	<polyline fill="none" stroke="#0073AC" stroke-miterlimit="10" points="77.5,5.7 77.5,13.7 85.4,13.7 	"/>
</g>
</svg>
