<?xml version="1.0" encoding="utf-8"?>
<!-- Generator: Adobe Illustrator 18.1.1, SVG Export Plug-In . SVG Version: 6.00 Build 0)  -->
<svg version="1.1" id="Layer_1" xmlns="http://www.w3.org/2000/svg" xmlns:xlink="http://www.w3.org/1999/xlink" x="0px" y="0px"
	 viewBox="0 0 28.3 28.3" enable-background="new 0 0 28.3 28.3" xml:space="preserve">
<g>
	<g>
		<path fill="#0073AC" d="M53.2-16.5c0-0.2,0-0.4,0-0.5c0-0.6,0.1-1.1,0.3-1.6c0.1-0.3,0.3-0.7,0.6-1c0.2-0.2,0.6-0.6,1.1-1.1
			c0.5-0.5,0.9-0.8,1-1.1c0.2-0.3,0.2-0.6,0.2-0.9c0-0.6-0.2-1.1-0.7-1.6c-0.5-0.5-1-0.7-1.7-0.7c-0.7,0-1.2,0.2-1.6,0.6
			c-0.4,0.4-0.7,1.1-0.9,1.9l-1.6-0.2c0.1-1.2,0.6-2.1,1.3-2.7c0.7-0.6,1.6-0.9,2.8-0.9c1.2,0,2.2,0.3,2.9,1
			c0.7,0.7,1.1,1.5,1.1,2.4c0,0.5-0.1,1.1-0.4,1.5c-0.3,0.5-0.8,1-1.5,1.7c-0.5,0.4-0.8,0.8-1,1c-0.2,0.2-0.3,0.5-0.3,0.7
			c-0.1,0.3-0.1,0.7-0.1,1.3H53.2z M53.1-13.4v-1.8h1.8v1.8H53.1z"/>
	</g>
	<circle fill="none" stroke="#0073AC" stroke-miterlimit="10" cx="54" cy="-19.8" r="12.2"/>
</g>
<g>
	<polygon fill="#FFFFFF" stroke="#0073AC" stroke-miterlimit="10" points="2.5,1 18.7,1 25.9,8.2 25.9,27.4 2.5,27.4 	"/>
	<line fill="none" stroke="#0073AC" stroke-miterlimit="10" x1="5.9" y1="17.8" x2="21.6" y2="17.8"/>
	<line fill="none" stroke="#0073AC" stroke-miterlimit="10" x1="5.9" y1="21.9" x2="21.6" y2="21.9"/>
	<line fill="none" stroke="#0073AC" stroke-miterlimit="10" x1="5.9" y1="14" x2="21.6" y2="14"/>
	<line fill="none" stroke="#0073AC" stroke-miterlimit="10" x1="5.9" y1="9.8" x2="14.3" y2="9.8"/>
	<line fill="none" stroke="#0073AC" stroke-miterlimit="10" x1="5.9" y1="5.8" x2="14.3" y2="5.8"/>
	<polyline fill="none" stroke="#0073AC" stroke-miterlimit="10" points="18,1 18,9 25.9,9 	"/>
</g>
</svg>
